<mxfile host="app.diagrams.net" agent="Mozilla/5.0 (Windows NT 10.0; Win64; x64) AppleWebKit/537.36 (KHTML, like Gecko) Chrome/128.0.0.0 Safari/537.36 Edg/128.0.0.0" version="24.7.14">
  <diagram name="Página-1" id="DzKP-rG3htPU8535EWbs">
    <mxGraphModel dx="1426" dy="749" grid="1" gridSize="10" guides="1" tooltips="1" connect="1" arrows="1" fold="1" page="1" pageScale="1" pageWidth="827" pageHeight="1169" math="0" shadow="0">
      <root>
        <mxCell id="0" />
        <mxCell id="1" parent="0" />
        <mxCell id="ujIBLaoprjg1PZej5cj--1" value="FATORIAL" style="rounded=0;whiteSpace=wrap;html=1;" vertex="1" parent="1">
          <mxGeometry x="264" width="300" height="60" as="geometry" />
        </mxCell>
        <mxCell id="ujIBLaoprjg1PZej5cj--7" value="" style="edgeStyle=orthogonalEdgeStyle;rounded=0;orthogonalLoop=1;jettySize=auto;html=1;" edge="1" parent="1" source="ujIBLaoprjg1PZej5cj--2" target="ujIBLaoprjg1PZej5cj--6">
          <mxGeometry relative="1" as="geometry" />
        </mxCell>
        <mxCell id="ujIBLaoprjg1PZej5cj--2" value="INICIO" style="ellipse;whiteSpace=wrap;html=1;" vertex="1" parent="1">
          <mxGeometry x="286" y="70" width="254" height="80" as="geometry" />
        </mxCell>
        <mxCell id="ujIBLaoprjg1PZej5cj--15" value="" style="edgeStyle=orthogonalEdgeStyle;rounded=0;orthogonalLoop=1;jettySize=auto;html=1;" edge="1" parent="1" source="ujIBLaoprjg1PZej5cj--5" target="ujIBLaoprjg1PZej5cj--14">
          <mxGeometry relative="1" as="geometry" />
        </mxCell>
        <mxCell id="ujIBLaoprjg1PZej5cj--5" value="ESCREVA UM NUMERO" style="shape=manualInput;whiteSpace=wrap;html=1;" vertex="1" parent="1">
          <mxGeometry x="295" y="270" width="231" height="80" as="geometry" />
        </mxCell>
        <mxCell id="ujIBLaoprjg1PZej5cj--6" value="INTEIRO NUMERO, ATUAL = 1, FATORIAL = 1" style="rounded=0;whiteSpace=wrap;html=1;fontSize=11;" vertex="1" parent="1">
          <mxGeometry x="288" y="180" width="250" height="60" as="geometry" />
        </mxCell>
        <mxCell id="ujIBLaoprjg1PZej5cj--33" value="" style="edgeStyle=orthogonalEdgeStyle;rounded=0;orthogonalLoop=1;jettySize=auto;html=1;" edge="1" parent="1" source="ujIBLaoprjg1PZej5cj--14" target="ujIBLaoprjg1PZej5cj--17">
          <mxGeometry relative="1" as="geometry" />
        </mxCell>
        <mxCell id="ujIBLaoprjg1PZej5cj--14" value="LEIA NUMERO" style="rounded=0;whiteSpace=wrap;html=1;" vertex="1" parent="1">
          <mxGeometry x="286" y="395" width="250" height="60" as="geometry" />
        </mxCell>
        <mxCell id="ujIBLaoprjg1PZej5cj--34" value="" style="edgeStyle=orthogonalEdgeStyle;rounded=0;orthogonalLoop=1;jettySize=auto;html=1;" edge="1" parent="1" source="ujIBLaoprjg1PZej5cj--17" target="ujIBLaoprjg1PZej5cj--19">
          <mxGeometry relative="1" as="geometry" />
        </mxCell>
        <mxCell id="ujIBLaoprjg1PZej5cj--17" value="ENQUANTO (ATUAL &amp;lt;= NUMERO)" style="rhombus;whiteSpace=wrap;html=1;fontSize=11;" vertex="1" parent="1">
          <mxGeometry x="291" y="490" width="240" height="90" as="geometry" />
        </mxCell>
        <mxCell id="ujIBLaoprjg1PZej5cj--22" value="" style="edgeStyle=orthogonalEdgeStyle;rounded=0;orthogonalLoop=1;jettySize=auto;html=1;" edge="1" parent="1" source="ujIBLaoprjg1PZej5cj--19" target="ujIBLaoprjg1PZej5cj--20">
          <mxGeometry relative="1" as="geometry" />
        </mxCell>
        <mxCell id="ujIBLaoprjg1PZej5cj--19" value="FATORIAL = FATORIAL * ATUAL" style="rounded=0;whiteSpace=wrap;html=1;" vertex="1" parent="1">
          <mxGeometry x="286" y="620" width="250" height="60" as="geometry" />
        </mxCell>
        <mxCell id="ujIBLaoprjg1PZej5cj--20" value="ATUAL = ATUAL + 1" style="rounded=0;whiteSpace=wrap;html=1;" vertex="1" parent="1">
          <mxGeometry x="286" y="720" width="250" height="60" as="geometry" />
        </mxCell>
        <mxCell id="ujIBLaoprjg1PZej5cj--35" value="" style="edgeStyle=orthogonalEdgeStyle;rounded=0;orthogonalLoop=1;jettySize=auto;html=1;" edge="1" parent="1" source="ujIBLaoprjg1PZej5cj--23" target="ujIBLaoprjg1PZej5cj--29">
          <mxGeometry relative="1" as="geometry" />
        </mxCell>
        <mxCell id="ujIBLaoprjg1PZej5cj--23" value="ESCREVA &quot;O FATORIAL DO NÚNERO &quot;, NUMERO, &quot; É: &quot;, FATORIAL&amp;nbsp;" style="shape=manualInput;whiteSpace=wrap;html=1;" vertex="1" parent="1">
          <mxGeometry x="287" y="820" width="250" height="80" as="geometry" />
        </mxCell>
        <mxCell id="ujIBLaoprjg1PZej5cj--26" style="edgeStyle=orthogonalEdgeStyle;rounded=0;orthogonalLoop=1;jettySize=auto;html=1;exitX=0.5;exitY=1;exitDx=0;exitDy=0;entryX=0.496;entryY=0.163;entryDx=0;entryDy=0;entryPerimeter=0;" edge="1" parent="1" source="ujIBLaoprjg1PZej5cj--20" target="ujIBLaoprjg1PZej5cj--23">
          <mxGeometry relative="1" as="geometry" />
        </mxCell>
        <mxCell id="ujIBLaoprjg1PZej5cj--29" value="FIM" style="ellipse;whiteSpace=wrap;html=1;" vertex="1" parent="1">
          <mxGeometry x="272" y="940" width="280" height="80" as="geometry" />
        </mxCell>
        <mxCell id="ujIBLaoprjg1PZej5cj--31" style="edgeStyle=orthogonalEdgeStyle;rounded=0;orthogonalLoop=1;jettySize=auto;html=1;exitX=0.5;exitY=1;exitDx=0;exitDy=0;entryX=0.511;entryY=0.238;entryDx=0;entryDy=0;entryPerimeter=0;" edge="1" parent="1" source="ujIBLaoprjg1PZej5cj--6" target="ujIBLaoprjg1PZej5cj--5">
          <mxGeometry relative="1" as="geometry" />
        </mxCell>
      </root>
    </mxGraphModel>
  </diagram>
</mxfile>
